<svg width="228" height="52" viewBox="0 0 228 52" fill="none" xmlns="http://www.w3.org/2000/svg">
<mask id="path-1-outside-1_248_183" maskUnits="userSpaceOnUse" x="-0.5" y="-0.400024" width="228" height="52" fill="black">
<rect fill="white" x="-0.5" y="-0.400024" width="228" height="52"/>
<path d="M8.32 46.6C7.2 46.6 6.2 46.26 5.32 45.58C4.44 44.86 4 43.98 4 42.94V8.25997C4 7.21997 4.34 6.35997 5.02 5.67997C5.74 4.95997 6.62 4.59997 7.66 4.59997H24.94C27.02 4.59997 28.96 5.15997 30.76 6.27997C32.6 7.35997 34.08 8.87997 35.2 10.84C36.32 12.76 36.88 14.98 36.88 17.5C36.88 19.02 36.56 20.5 35.92 21.94C35.32 23.38 34.48 24.68 33.4 25.84C32.36 27 31.18 27.9 29.86 28.54L29.92 27.16C31.04 27.76 31.96 28.48 32.68 29.32C33.44 30.12 34.02 31 34.42 31.96C34.86 32.88 35.12 33.88 35.2 34.96C35.36 35.96 35.46 36.84 35.5 37.6C35.58 38.36 35.7 39 35.86 39.52C36.06 40.04 36.42 40.44 36.94 40.72C37.82 41.24 38.36 42 38.56 43C38.8 43.96 38.58 44.82 37.9 45.58C37.46 46.1 36.9 46.44 36.22 46.6C35.54 46.72 34.86 46.72 34.18 46.6C33.5 46.44 32.94 46.24 32.5 46C31.82 45.6 31.14 45.02 30.46 44.26C29.78 43.46 29.22 42.4 28.78 41.08C28.38 39.76 28.18 38.06 28.18 35.98C28.18 35.3 28.06 34.68 27.82 34.12C27.58 33.52 27.24 33.02 26.8 32.62C26.36 32.18 25.8 31.86 25.12 31.66C24.44 31.42 23.64 31.3 22.72 31.3H10.6L11.5 29.92V42.94C11.5 43.98 11.22 44.86 10.66 45.58C10.1 46.26 9.32 46.6 8.32 46.6ZM10.66 25.12H24.64C25.36 25.12 26.06 24.8 26.74 24.16C27.42 23.48 27.98 22.58 28.42 21.46C28.86 20.3 29.08 19.04 29.08 17.68C29.08 15.92 28.6 14.46 27.64 13.3C26.72 12.1 25.72 11.5 24.64 11.5H10.78L11.5 9.57997V26.56L10.66 25.12ZM61.6914 42.94C61.6914 43.98 61.3114 44.86 60.5514 45.58C59.7914 46.26 58.9114 46.6 57.9114 46.6C56.7914 46.6 55.8914 46.26 55.2114 45.58C54.5314 44.86 54.1914 43.98 54.1914 42.94V8.25997C54.1914 7.21997 54.5514 6.35997 55.2714 5.67997C55.9914 4.95997 56.9114 4.59997 58.0314 4.59997C58.9914 4.59997 59.8314 4.95997 60.5514 5.67997C61.3114 6.35997 61.6914 7.21997 61.6914 8.25997V42.94ZM93.9348 46.6C92.8148 46.6 91.8948 46.26 91.1748 45.58C90.4548 44.86 90.0948 43.98 90.0948 42.94V8.13997H97.8948V42.94C97.8948 43.98 97.5148 44.86 96.7548 45.58C96.0348 46.26 95.0948 46.6 93.9348 46.6ZM80.6748 11.5C79.6348 11.5 78.7548 11.18 78.0348 10.54C77.3548 9.89997 77.0148 9.05997 77.0148 8.01998C77.0148 6.97997 77.3548 6.15997 78.0348 5.55997C78.7548 4.91997 79.6348 4.59997 80.6748 4.59997H107.315C108.355 4.59997 109.215 4.91997 109.895 5.55997C110.615 6.19997 110.975 7.03997 110.975 8.07997C110.975 9.11997 110.615 9.95997 109.895 10.6C109.215 11.2 108.355 11.5 107.315 11.5H80.6748ZM130.053 4.53997C130.613 4.53997 131.193 4.69997 131.793 5.01997C132.433 5.29997 132.913 5.67997 133.233 6.15997L147.813 28.6L144.813 28.48L159.753 6.15997C160.513 5.07997 161.493 4.53997 162.693 4.53997C163.653 4.53997 164.513 4.87997 165.273 5.55997C166.033 6.23997 166.413 7.11997 166.413 8.19997V42.94C166.413 43.98 166.073 44.86 165.393 45.58C164.713 46.26 163.813 46.6 162.693 46.6C161.573 46.6 160.653 46.26 159.933 45.58C159.253 44.86 158.913 43.98 158.913 42.94V14.68L161.253 15.22L149.013 33.88C148.653 34.32 148.193 34.7 147.633 35.02C147.113 35.34 146.573 35.48 146.013 35.44C145.493 35.48 144.953 35.34 144.393 35.02C143.873 34.7 143.433 34.32 143.073 33.88L131.613 15.76L133.173 12.58V42.94C133.173 43.98 132.853 44.86 132.213 45.58C131.573 46.26 130.733 46.6 129.693 46.6C128.693 46.6 127.873 46.26 127.233 45.58C126.593 44.86 126.273 43.98 126.273 42.94V8.19997C126.273 7.19997 126.633 6.33997 127.353 5.61997C128.113 4.89997 129.013 4.53997 130.053 4.53997ZM223.074 25.6C223.074 28.6 222.574 31.4 221.574 34C220.574 36.6 219.154 38.9 217.314 40.9C215.514 42.86 213.354 44.4 210.834 45.52C208.354 46.64 205.634 47.2 202.674 47.2C199.714 47.2 196.994 46.64 194.514 45.52C192.034 44.4 189.874 42.86 188.034 40.9C186.234 38.9 184.834 36.6 183.834 34C182.834 31.4 182.334 28.6 182.334 25.6C182.334 22.6 182.834 19.8 183.834 17.2C184.834 14.6 186.234 12.32 188.034 10.36C189.874 8.35997 192.034 6.79997 194.514 5.67997C196.994 4.55997 199.714 3.99997 202.674 3.99997C205.634 3.99997 208.354 4.55997 210.834 5.67997C213.354 6.79997 215.514 8.35997 217.314 10.36C219.154 12.32 220.574 14.6 221.574 17.2C222.574 19.8 223.074 22.6 223.074 25.6ZM215.274 25.6C215.274 22.92 214.734 20.5 213.654 18.34C212.574 16.14 211.094 14.4 209.214 13.12C207.334 11.84 205.154 11.2 202.674 11.2C200.194 11.2 198.014 11.84 196.134 13.12C194.254 14.4 192.774 16.12 191.694 18.28C190.654 20.44 190.134 22.88 190.134 25.6C190.134 28.28 190.654 30.72 191.694 32.92C192.774 35.08 194.254 36.8 196.134 38.08C198.014 39.36 200.194 40 202.674 40C205.154 40 207.334 39.36 209.214 38.08C211.094 36.8 212.574 35.08 213.654 32.92C214.734 30.72 215.274 28.28 215.274 25.6Z"/>
</mask>
<path d="M5.32 45.58L2.78705 48.6758L2.83015 48.7111L2.87421 48.7451L5.32 45.58ZM5.02 5.67997L2.19157 2.85155H2.19157L5.02 5.67997ZM30.76 6.27997L28.6468 9.6762L28.6907 9.70349L28.7352 9.72964L30.76 6.27997ZM35.2 10.84L31.727 12.8245L31.7359 12.84L31.7449 12.8555L35.2 10.84ZM35.92 21.94L32.2648 20.3154L32.2457 20.3582L32.2277 20.4015L35.92 21.94ZM33.4 25.84L30.4724 23.1143L30.4468 23.1418L30.4217 23.1698L33.4 25.84ZM29.86 28.54L25.8638 28.3662L25.5726 35.0641L31.6051 32.1392L29.86 28.54ZM29.92 27.16L31.8089 23.6341L26.2002 20.6294L25.9238 26.9862L29.92 27.16ZM32.68 29.32L29.643 31.9231L29.7095 32.0008L29.78 32.075L32.68 29.32ZM34.42 31.96L30.7277 33.4984L30.7672 33.5932L30.8115 33.6858L34.42 31.96ZM35.2 34.96L31.2109 35.2555L31.2235 35.4245L31.2502 35.5919L35.2 34.96ZM35.5 37.6L31.5055 37.8102L31.511 37.9147L31.522 38.0187L35.5 37.6ZM35.86 39.52L32.0369 40.6963L32.0773 40.8276L32.1266 40.9559L35.86 39.52ZM36.94 40.72L38.9749 37.2763L38.9064 37.2358L38.8364 37.1981L36.94 40.72ZM38.56 43L34.6377 43.7844L34.6563 43.8778L34.6794 43.9701L38.56 43ZM37.9 45.58L34.919 42.9128L34.8822 42.954L34.8465 42.9962L37.9 45.58ZM36.22 46.6L36.9151 50.5391L37.0263 50.5195L37.1362 50.4936L36.22 46.6ZM34.18 46.6L33.2638 50.4936L33.3737 50.5195L33.4849 50.5391L34.18 46.6ZM32.5 46L30.4719 49.4477L30.5277 49.4805L30.5846 49.5116L32.5 46ZM30.46 44.26L27.4122 46.8506L27.4452 46.8893L27.479 46.9272L30.46 44.26ZM28.78 41.08L24.9519 42.24L24.9679 42.2927L24.9853 42.3449L28.78 41.08ZM27.82 34.12L24.1061 35.6055L24.1242 35.6508L24.1434 35.6956L27.82 34.12ZM26.8 32.62L23.9716 35.4484L24.0389 35.5157L24.1093 35.5797L26.8 32.62ZM25.12 31.66L23.7887 35.4319L23.8892 35.4674L23.9913 35.4974L25.12 31.66ZM10.6 31.3L7.24956 29.1149L3.21582 35.3H10.6V31.3ZM11.5 29.92H15.5V16.4642L8.14956 27.7349L11.5 29.92ZM10.66 45.58L13.7477 48.1228L13.7832 48.0798L13.8174 48.0357L10.66 45.58ZM10.66 25.12V21.12H3.69585L7.20489 27.1355L10.66 25.12ZM26.74 24.16L29.4815 27.0728L29.5256 27.0312L29.5684 26.9884L26.74 24.16ZM28.42 21.46L32.143 22.9226L32.1516 22.9006L32.16 22.8786L28.42 21.46ZM27.64 13.3L24.4656 15.7337L24.5109 15.7928L24.5584 15.8502L27.64 13.3ZM10.78 11.5L7.03468 10.0955L5.008 15.5H10.78V11.5ZM11.5 9.57997H15.5L7.75468 8.17548L11.5 9.57997ZM11.5 26.56L8.04488 28.5755L15.5 41.3557V26.56H11.5ZM8.32 46.6V42.6C8.07837 42.6 7.93999 42.5494 7.76579 42.4148L5.32 45.58L2.87421 48.7451C4.46001 49.9705 6.32163 50.6 8.32 50.6V46.6ZM5.32 45.58L7.85295 42.4841C7.78191 42.426 7.83918 42.4541 7.90771 42.5911C7.94016 42.656 7.96542 42.7266 7.98143 42.7965C7.99724 42.8654 8 42.916 8 42.94H4H1.78814e-07C1.78814e-07 45.3015 1.07709 47.2767 2.78705 48.6758L5.32 45.58ZM4 42.94H8V8.25997H4H1.78814e-07V42.94H4ZM4 8.25997H8C8 8.18102 8.0116 8.21265 7.97484 8.30561C7.95767 8.34905 7.93496 8.39273 7.9086 8.43252C7.88248 8.47196 7.85975 8.49708 7.84843 8.5084L5.02 5.67997L2.19157 2.85155C0.696563 4.34656 1.78814e-07 6.2545 1.78814e-07 8.25997H4ZM5.02 5.67997L7.84843 8.5084C7.85747 8.49936 7.85111 8.50719 7.82789 8.52287C7.80412 8.53891 7.7721 8.55679 7.73453 8.57216C7.69708 8.58748 7.66611 8.59541 7.64715 8.59896C7.62897 8.60237 7.63144 8.59997 7.66 8.59997V4.59997V0.599972C5.58455 0.599972 3.6795 1.36361 2.19157 2.85155L5.02 5.67997ZM7.66 4.59997V8.59997H24.94V4.59997V0.599972H7.66V4.59997ZM24.94 4.59997V8.59997C26.258 8.59997 27.4681 8.94281 28.6468 9.6762L30.76 6.27997L32.8732 2.88375C30.4519 1.37714 27.782 0.599972 24.94 0.599972V4.59997ZM30.76 6.27997L28.7352 9.72964C29.9376 10.4354 30.9327 11.4344 31.727 12.8245L35.2 10.84L38.673 8.85542C37.2273 6.32553 35.2624 4.28458 32.7848 2.83031L30.76 6.27997ZM35.2 10.84L31.7449 12.8555C32.4624 14.0854 32.88 15.5917 32.88 17.5H36.88H40.88C40.88 14.3683 40.1776 11.4345 38.6551 8.82449L35.2 10.84ZM36.88 17.5H32.88C32.88 18.4396 32.686 19.3676 32.2648 20.3154L35.92 21.94L39.5752 23.5645C40.434 21.6323 40.88 19.6003 40.88 17.5H36.88ZM35.92 21.94L32.2277 20.4015C31.8131 21.3965 31.2344 22.2959 30.4724 23.1143L33.4 25.84L36.3276 28.5657C37.7256 27.0641 38.8269 25.3635 39.6123 23.4784L35.92 21.94ZM33.4 25.84L30.4217 23.1698C29.7068 23.9673 28.9389 24.5412 28.1149 24.9407L29.86 28.54L31.6051 32.1392C33.4211 31.2587 35.0132 30.0327 36.3783 28.5102L33.4 25.84ZM29.86 28.54L33.8562 28.7137L33.9162 27.3337L29.92 27.16L25.9238 26.9862L25.8638 28.3662L29.86 28.54ZM29.92 27.16L28.0311 30.6859C28.7786 31.0863 29.2894 31.5106 29.643 31.9231L32.68 29.32L35.717 26.7168C34.6306 25.4493 33.3014 24.4336 31.8089 23.6341L29.92 27.16ZM32.68 29.32L29.78 32.075C30.2246 32.543 30.5266 33.0158 30.7277 33.4984L34.42 31.96L38.1123 30.4215C37.5134 28.9841 36.6554 27.697 35.58 26.565L32.68 29.32ZM34.42 31.96L30.8115 33.6858C31.0237 34.1296 31.1654 34.6407 31.2109 35.2555L35.2 34.96L39.1891 34.6645C39.0746 33.1193 38.6963 31.6304 38.0285 30.2341L34.42 31.96ZM35.2 34.96L31.2502 35.5919C31.3947 36.4948 31.4749 37.2288 31.5055 37.8102L35.5 37.6L39.4945 37.3897C39.4451 36.4512 39.3253 35.4252 39.1498 34.328L35.2 34.96ZM35.5 37.6L31.522 38.0187C31.6191 38.9413 31.7773 39.8527 32.0369 40.6963L35.86 39.52L39.6831 38.3436C39.6227 38.1472 39.5409 37.7787 39.478 37.1812L35.5 37.6ZM35.86 39.52L32.1266 40.9559C32.6916 42.4249 33.7365 43.538 35.0436 44.2419L36.94 40.72L38.8364 37.1981C38.9419 37.2549 39.097 37.3606 39.2532 37.5341C39.4118 37.7103 39.5242 37.9041 39.5934 38.0841L35.86 39.52ZM36.94 40.72L34.9051 44.1637C34.9089 44.166 34.8295 44.1167 34.7443 43.9968C34.6589 43.8767 34.6376 43.7838 34.6377 43.7844L38.56 43L42.4823 42.2155C42.0589 40.0983 40.8306 38.3728 38.9749 37.2763L36.94 40.72ZM38.56 43L34.6794 43.9701C34.6572 43.8812 34.627 43.658 34.6998 43.3736C34.7712 43.0944 34.8948 42.9399 34.919 42.9128L37.9 45.58L40.881 48.2472C42.4129 46.535 43.0138 44.3228 42.4406 42.0298L38.56 43ZM37.9 45.58L34.8465 42.9962C34.894 42.9401 34.9708 42.8686 35.0741 42.8058C35.1765 42.7437 35.2619 42.7162 35.3038 42.7063L36.22 46.6L37.1362 50.4936C38.6277 50.1427 39.9448 49.3558 40.9535 48.1637L37.9 45.58ZM36.22 46.6L35.5249 42.6608C35.3047 42.6997 35.0953 42.6997 34.8751 42.6608L34.18 46.6L33.4849 50.5391C34.6247 50.7403 35.7753 50.7403 36.9151 50.5391L36.22 46.6ZM34.18 46.6L35.0962 42.7063C34.639 42.5987 34.4447 42.5044 34.4154 42.4884L32.5 46L30.5846 49.5116C31.4353 49.9756 32.361 50.2812 33.2638 50.4936L34.18 46.6ZM32.5 46L34.5281 42.5522C34.2907 42.4126 33.9217 42.1301 33.441 41.5928L30.46 44.26L27.479 46.9272C28.3583 47.9099 29.3493 48.7873 30.4719 49.4477L32.5 46ZM30.46 44.26L33.5078 41.6694C33.2479 41.3637 32.9026 40.7988 32.5747 39.8151L28.78 41.08L24.9853 42.3449C25.5374 44.0011 26.3121 45.5563 27.4122 46.8506L30.46 44.26ZM28.78 41.08L32.6081 39.9199C32.3642 39.1152 32.18 37.8451 32.18 35.98H28.18H24.18C24.18 38.2748 24.3958 40.4047 24.9519 42.24L28.78 41.08ZM28.18 35.98H32.18C32.18 34.8213 31.9735 33.657 31.4966 32.5443L27.82 34.12L24.1434 35.6956C24.1465 35.7029 24.18 35.7787 24.18 35.98H28.18ZM27.82 34.12L31.5339 32.6344C31.0887 31.5215 30.4169 30.5023 29.4907 29.6602L26.8 32.62L24.1093 35.5797C24.1018 35.5729 24.0947 35.5656 24.0885 35.5584C24.0823 35.5513 24.0786 35.5462 24.0773 35.5442C24.076 35.5423 24.0782 35.5452 24.083 35.5544C24.0878 35.5636 24.0959 35.5802 24.1061 35.6055L27.82 34.12ZM26.8 32.62L29.6284 29.7915C28.6528 28.8159 27.4804 28.1848 26.2487 27.8225L25.12 31.66L23.9913 35.4974C24.0619 35.5182 24.0807 35.5317 24.0654 35.5229C24.0581 35.5188 24.0447 35.5104 24.0272 35.4971C24.0096 35.4838 23.9906 35.4674 23.9716 35.4484L26.8 32.62ZM25.12 31.66L26.4513 27.888C25.2442 27.462 23.9744 27.3 22.72 27.3V31.3V35.3C23.3056 35.3 23.6358 35.378 23.7887 35.4319L25.12 31.66ZM22.72 31.3V27.3H10.6V31.3V35.3H22.72V31.3ZM10.6 31.3L13.9504 33.485L14.8504 32.105L11.5 29.92L8.14956 27.7349L7.24956 29.1149L10.6 31.3ZM11.5 29.92H7.5V42.94H11.5H15.5V29.92H11.5ZM11.5 42.94H7.5C7.5 43.0996 7.47888 43.1653 7.4783 43.1672C7.47768 43.1691 7.47976 43.1623 7.48591 43.1506C7.4921 43.1389 7.49851 43.1295 7.50259 43.1242L10.66 45.58L13.8174 48.0357C14.9987 46.5169 15.5 44.7387 15.5 42.94H11.5ZM10.66 45.58L7.57228 43.0371C7.67857 42.9081 7.84781 42.7692 8.05666 42.6782C8.25136 42.5933 8.36515 42.6 8.32 42.6V46.6V50.6C10.3335 50.6 12.3195 49.8571 13.7477 48.1228L10.66 45.58ZM10.66 25.12V29.12H24.64V25.12V21.12H10.66V25.12ZM24.64 25.12V29.12C26.6537 29.12 28.2872 28.1968 29.4815 27.0728L26.74 24.16L23.9985 21.2472C23.9107 21.3299 23.9212 21.2973 24.042 21.2421C24.1773 21.1802 24.3871 21.12 24.64 21.12V25.12ZM26.74 24.16L29.5684 26.9884C30.722 25.8349 31.5508 24.43 32.143 22.9226L28.42 21.46L24.697 19.9974C24.4092 20.73 24.118 21.1251 23.9116 21.3316L26.74 24.16ZM28.42 21.46L32.16 22.8786C32.7877 21.2237 33.08 19.478 33.08 17.68H29.08H25.08C25.08 18.6019 24.9323 19.3762 24.68 20.0414L28.42 21.46ZM29.08 17.68H33.08C33.08 15.154 32.3726 12.7446 30.7216 10.7497L27.64 13.3L24.5584 15.8502C24.8274 16.1753 25.08 16.686 25.08 17.68H29.08ZM27.64 13.3L30.8144 10.8662C29.4587 9.09796 27.4111 7.49997 24.64 7.49997V11.5V15.5C24.5341 15.5 24.4259 15.4845 24.3264 15.4558C24.2287 15.4276 24.1664 15.3946 24.142 15.3799C24.1198 15.3666 24.1404 15.3755 24.1992 15.4306C24.2586 15.4863 24.3492 15.5819 24.4656 15.7337L27.64 13.3ZM24.64 11.5V7.49997H10.78V11.5V15.5H24.64V11.5ZM10.78 11.5L14.5253 12.9045L15.2453 10.9845L11.5 9.57997L7.75468 8.17548L7.03468 10.0955L10.78 11.5ZM11.5 9.57997H7.5V26.56H11.5H15.5V9.57997H11.5ZM11.5 26.56L14.9551 24.5445L14.1151 23.1045L10.66 25.12L7.20489 27.1355L8.04488 28.5755L11.5 26.56ZM60.5514 45.58L63.2186 48.5609L63.261 48.523L63.3024 48.4838L60.5514 45.58ZM55.2114 45.58L52.3034 48.3265L52.3426 48.368L52.383 48.4084L55.2114 45.58ZM55.2714 5.67997L58.0179 8.58802L58.0594 8.5488L58.0998 8.5084L55.2714 5.67997ZM60.5514 5.67997L57.723 8.5084L57.8015 8.58691L57.8842 8.66094L60.5514 5.67997ZM61.6914 42.94H57.6914C57.6914 42.9555 57.6901 42.9446 57.6963 42.9134C57.7026 42.8814 57.7145 42.8397 57.7342 42.7942C57.7538 42.7488 57.7753 42.713 57.7925 42.6889C57.8091 42.6655 57.8153 42.662 57.8004 42.6762L60.5514 45.58L63.3024 48.4838C64.8537 47.0141 65.6914 45.0866 65.6914 42.94H61.6914ZM60.5514 45.58L57.8842 42.599C57.8571 42.6232 57.8442 42.631 57.8464 42.6296C57.8472 42.6291 57.8508 42.6269 57.8569 42.6238C57.8631 42.6207 57.8708 42.6173 57.8798 42.6138C57.8888 42.6103 57.8978 42.6073 57.9065 42.6049C57.9151 42.6025 57.9221 42.601 57.927 42.6001C57.9376 42.5982 57.9338 42.6 57.9114 42.6V46.6V50.6C59.9168 50.6 61.7412 49.8828 63.2186 48.5609L60.5514 45.58ZM57.9114 46.6V42.6C57.7564 42.6 57.7407 42.5769 57.81 42.6031C57.8436 42.6158 57.8864 42.6362 57.9321 42.6657C57.9779 42.6952 58.0142 42.7259 58.0398 42.7515L55.2114 45.58L52.383 48.4084C53.9368 49.9622 55.9192 50.6 57.9114 50.6V46.6ZM55.2114 45.58L58.1195 42.8335C58.1153 42.8291 58.124 42.8377 58.1381 42.8597C58.1524 42.8822 58.1664 42.9095 58.1776 42.9384C58.1887 42.967 58.1929 42.9868 58.1939 42.9925C58.1948 42.9975 58.1914 42.9816 58.1914 42.94H54.1914H50.1914C50.1914 44.9448 50.8842 46.8239 52.3034 48.3265L55.2114 45.58ZM54.1914 42.94H58.1914V8.25997H54.1914H50.1914V42.94H54.1914ZM54.1914 8.25997H58.1914C58.1914 8.20901 58.1984 8.2668 58.1512 8.37953C58.1293 8.43173 58.1023 8.4799 58.0738 8.52043C58.0458 8.56039 58.0239 8.58238 58.0179 8.58802L55.2714 5.67997L52.5249 2.77192C50.9609 4.24907 50.1914 6.18142 50.1914 8.25997H54.1914ZM55.2714 5.67997L58.0998 8.5084C58.0953 8.51291 58.0784 8.52871 58.0489 8.54816C58.0191 8.56779 57.9876 8.58376 57.959 8.59494C57.931 8.60592 57.9171 8.60783 57.924 8.60661C57.9319 8.60523 57.9658 8.59997 58.0314 8.59997V4.59997V0.599972C55.967 0.599972 53.9917 1.30286 52.443 2.85155L55.2714 5.67997ZM58.0314 4.59997V8.59997C58.0201 8.59997 57.9893 8.59877 57.9444 8.58979C57.8991 8.58072 57.8513 8.5661 57.8057 8.54655C57.7075 8.50445 57.6818 8.46721 57.723 8.5084L60.5514 5.67997L63.3798 2.85155C61.9602 1.4319 60.1216 0.599972 58.0314 0.599972V4.59997ZM60.5514 5.67997L57.8842 8.66094C57.8846 8.6613 57.8644 8.64311 57.8352 8.60363C57.8054 8.56339 57.7742 8.51173 57.7477 8.45163C57.6898 8.32067 57.6914 8.2373 57.6914 8.25997H61.6914H65.6914C65.6914 6.1077 64.8457 4.15482 63.2186 2.69901L60.5514 5.67997ZM61.6914 8.25997H57.6914V42.94H61.6914H65.6914V8.25997H61.6914ZM91.1748 45.58L88.3464 48.4084L88.3868 48.4488L88.4284 48.488L91.1748 45.58ZM90.0948 8.13997V4.13997H86.0948V8.13997H90.0948ZM97.8948 8.13997H101.895V4.13997H97.8948V8.13997ZM96.7548 45.58L99.5013 48.488L99.5058 48.4838L96.7548 45.58ZM78.0348 10.54L75.2934 13.4528L75.3348 13.4918L75.3774 13.5296L78.0348 10.54ZM78.0348 5.55997L80.6813 8.55933L80.6868 8.55448L80.6923 8.54961L78.0348 5.55997ZM109.895 5.55997L107.153 8.47277L107.195 8.51179L107.237 8.54961L109.895 5.55997ZM109.895 10.6L112.541 13.5993L112.547 13.5945L112.552 13.5896L109.895 10.6ZM93.9348 46.6V42.6C93.8571 42.6 93.8105 42.5941 93.7899 42.5906C93.7701 42.5873 93.7727 42.5861 93.7914 42.593C93.8108 42.6002 93.8369 42.6122 93.8649 42.6296C93.8927 42.6469 93.9119 42.663 93.9213 42.6719L91.1748 45.58L88.4284 48.488C89.9896 49.9626 91.938 50.6 93.9348 50.6V46.6ZM91.1748 45.58L94.0033 42.7515C93.9942 42.7425 94.0021 42.7489 94.0177 42.7721C94.0338 42.7959 94.0517 42.8279 94.067 42.8654C94.0824 42.9029 94.0903 42.9339 94.0938 42.9528C94.0972 42.971 94.0948 42.9685 94.0948 42.94H90.0948H86.0948C86.0948 45.0154 86.8585 46.9205 88.3464 48.4084L91.1748 45.58ZM90.0948 42.94H94.0948V8.13997H90.0948H86.0948V42.94H90.0948ZM90.0948 8.13997V12.14H97.8948V8.13997V4.13997H90.0948V8.13997ZM97.8948 8.13997H93.8948V42.94H97.8948H101.895V8.13997H97.8948ZM97.8948 42.94H93.8948C93.8948 42.9555 93.8935 42.9446 93.8997 42.9134C93.906 42.8814 93.918 42.8397 93.9376 42.7942C93.9572 42.7488 93.9787 42.713 93.9959 42.6889C94.0126 42.6655 94.0188 42.662 94.0039 42.6762L96.7548 45.58L99.5058 48.4838C101.057 47.0141 101.895 45.0866 101.895 42.94H97.8948ZM96.7548 45.58L94.0084 42.6719C94.0247 42.6564 94.0491 42.6369 94.0795 42.6182C94.1098 42.5995 94.1351 42.5886 94.1493 42.5835C94.1794 42.5726 94.124 42.6 93.9348 42.6V46.6V50.6C95.9291 50.6 97.9132 49.988 99.5013 48.488L96.7548 45.58ZM80.6748 11.5V7.49997C80.6202 7.49997 80.5909 7.4958 80.5824 7.4944C80.5746 7.4931 80.5827 7.49385 80.6018 7.5008C80.6213 7.50787 80.6427 7.51794 80.6628 7.53C80.6827 7.54193 80.6926 7.55062 80.6923 7.55033L78.0348 10.54L75.3774 13.5296C76.8905 14.8746 78.7398 15.5 80.6748 15.5V11.5ZM78.0348 10.54L80.7763 7.62718C80.8045 7.65376 80.8428 7.69542 80.8822 7.75258C80.9218 7.81007 80.954 7.87075 80.9776 7.9292C81.027 8.05111 81.0148 8.10081 81.0148 8.01997H77.0148H73.0148C73.0148 10.0242 73.7146 11.9668 75.2934 13.4528L78.0348 10.54ZM77.0148 8.01997H81.0148C81.0148 7.93683 81.0277 8.00547 80.9648 8.15704C80.8964 8.322 80.7878 8.46542 80.6813 8.55933L78.0348 5.55997L75.3884 2.56062C73.7171 4.03527 73.0148 6.01897 73.0148 8.01997H77.0148ZM78.0348 5.55997L80.6923 8.54961C80.6926 8.54932 80.6827 8.55801 80.6628 8.56994C80.6427 8.582 80.6213 8.59208 80.6018 8.59915C80.5827 8.60609 80.5746 8.60685 80.5824 8.60555C80.5909 8.60415 80.6202 8.59997 80.6748 8.59997V4.59997V0.599972C78.7398 0.599972 76.8904 1.22539 75.3774 2.57034L78.0348 5.55997ZM80.6748 4.59997V8.59997H107.315V4.59997V0.599972H80.6748V4.59997ZM107.315 4.59997V8.59997C107.422 8.59997 107.417 8.61554 107.345 8.58886C107.311 8.57628 107.273 8.55809 107.235 8.53444C107.197 8.51089 107.17 8.48829 107.153 8.47277L109.895 5.55997L112.636 2.64718C111.128 1.22721 109.248 0.599972 107.315 0.599972V4.59997ZM109.895 5.55997L107.237 8.54961C107.182 8.50056 107.092 8.39529 107.028 8.24565C106.967 8.10359 106.975 8.02723 106.975 8.07998H110.975H114.975C114.975 5.99981 114.2 4.03487 112.552 2.57034L109.895 5.55997ZM110.975 8.07998H106.975C106.975 8.13271 106.967 8.05635 107.028 7.9143C107.092 7.76466 107.182 7.65939 107.237 7.61034L109.895 10.6L112.552 13.5896C114.2 12.1251 114.975 10.1601 114.975 8.07998H110.975ZM109.895 10.6L107.248 7.60062C107.269 7.58216 107.298 7.56061 107.333 7.54024C107.368 7.51989 107.399 7.50629 107.422 7.49817C107.471 7.4811 107.449 7.49997 107.315 7.49997V11.5V15.5C109.177 15.5 111.024 14.9383 112.541 13.5993L109.895 10.6ZM107.315 11.5V7.49997H80.6748V11.5V15.5H107.315V11.5ZM131.793 5.01997L129.911 8.54939L130.048 8.62241L130.19 8.6846L131.793 5.01997ZM133.233 6.15997L136.588 3.98065L136.575 3.96084L136.562 3.94118L133.233 6.15997ZM147.813 28.6L147.654 32.5968L155.381 32.9059L151.168 26.4207L147.813 28.6ZM144.813 28.48L141.489 26.255L137.516 32.1913L144.654 32.4768L144.813 28.48ZM159.753 6.15997L156.482 3.858L156.455 3.89619L156.429 3.93499L159.753 6.15997ZM165.273 5.55997L162.606 8.54094V8.54094L165.273 5.55997ZM165.393 45.58L168.222 48.4084L168.262 48.368L168.301 48.3265L165.393 45.58ZM159.933 45.58L157.025 48.3265L157.104 48.4096L157.187 48.488L159.933 45.58ZM158.913 14.68L159.813 10.7824L154.913 9.65177V14.68H158.913ZM161.253 15.22L164.598 17.4139L167.747 12.6134L162.153 11.3224L161.253 15.22ZM149.013 33.88L152.109 36.4129L152.243 36.25L152.358 36.0739L149.013 33.88ZM147.633 35.02L145.649 31.547L145.592 31.5793L145.537 31.6133L147.633 35.02ZM146.013 35.44L146.298 31.4501L146.002 31.429L145.707 31.4518L146.013 35.44ZM144.393 35.02L142.297 38.4266L142.352 38.4607L142.409 38.493L144.393 35.02ZM143.073 33.88L139.693 36.0181L139.823 36.2242L139.978 36.4129L143.073 33.88ZM131.613 15.76L128.022 13.9983L127.037 16.007L128.233 17.8981L131.613 15.76ZM133.173 12.58H137.173L129.582 10.8183L133.173 12.58ZM132.213 45.58L135.126 48.3214L135.165 48.28L135.203 48.2374L132.213 45.58ZM127.233 45.58L124.244 48.2374L124.282 48.28L124.321 48.3214L127.233 45.58ZM127.353 5.61997L124.602 2.71616L124.563 2.75333L124.525 2.79155L127.353 5.61997ZM130.053 4.53997V8.53997C129.948 8.53997 129.876 8.52445 129.845 8.51595C129.817 8.50821 129.838 8.51043 129.911 8.54939L131.793 5.01997L133.676 1.49056C132.619 0.927193 131.397 0.539974 130.053 0.539974V4.53997ZM131.793 5.01997L130.19 8.6846C130.239 8.70592 130.215 8.70184 130.151 8.65116C130.083 8.59741 129.991 8.50765 129.905 8.37877L133.233 6.15997L136.562 3.94118C135.735 2.70094 134.589 1.877 133.397 1.35534L131.793 5.01997ZM133.233 6.15997L129.879 8.3393L144.459 30.7793L147.813 28.6L151.168 26.4207L136.588 3.98065L133.233 6.15997ZM147.813 28.6L147.973 24.6032L144.973 24.4832L144.813 28.48L144.654 32.4768L147.654 32.5968L147.813 28.6ZM144.813 28.48L148.138 30.705L163.078 8.38496L159.753 6.15997L156.429 3.93499L141.489 26.255L144.813 28.48ZM159.753 6.15997L163.025 8.46195C163.117 8.3301 163.119 8.37661 162.989 8.44833C162.928 8.482 162.861 8.50795 162.796 8.52388C162.766 8.53142 162.741 8.53557 162.722 8.53777C162.713 8.53885 162.706 8.53941 162.701 8.53969C162.698 8.53983 162.697 8.5399 162.695 8.53994C162.695 8.53996 162.694 8.53996 162.694 8.53997C162.694 8.53997 162.694 8.53997 162.694 8.53997C162.694 8.53997 162.693 8.53997 162.693 8.53997C162.693 8.53997 162.693 8.53997 162.693 8.53997V4.53997V0.539974C160.046 0.539974 157.903 1.83836 156.482 3.858L159.753 6.15997ZM162.693 4.53997V8.53997C162.696 8.53997 162.684 8.54009 162.66 8.5357C162.636 8.53125 162.611 8.52401 162.588 8.51482C162.565 8.50572 162.553 8.49837 162.553 8.49865C162.554 8.49926 162.572 8.5107 162.606 8.54094L165.273 5.55997L167.941 2.57901C166.497 1.28738 164.702 0.539974 162.693 0.539974V4.53997ZM165.273 5.55997L162.606 8.54094C162.599 8.53456 162.574 8.51079 162.543 8.46754C162.511 8.42365 162.48 8.37168 162.456 8.31572C162.404 8.19527 162.413 8.13631 162.413 8.19997H166.413H170.413C170.413 6.05791 169.604 4.06704 167.941 2.57901L165.273 5.55997ZM166.413 8.19997H162.413V42.94H166.413H170.413V8.19997H166.413ZM166.413 42.94H162.413C162.413 42.9816 162.41 42.9975 162.411 42.9925C162.412 42.9868 162.416 42.967 162.427 42.9384C162.438 42.9095 162.452 42.8822 162.467 42.8597C162.481 42.8377 162.49 42.8291 162.485 42.8335L165.393 45.58L168.301 48.3265C169.721 46.8239 170.413 44.9448 170.413 42.94H166.413ZM165.393 45.58L162.565 42.7515C162.591 42.7259 162.627 42.6952 162.673 42.6657C162.718 42.6362 162.761 42.6158 162.795 42.6031C162.864 42.5769 162.848 42.6 162.693 42.6V46.6V50.6C164.686 50.6 166.668 49.9622 168.222 48.4084L165.393 45.58ZM162.693 46.6V42.6C162.616 42.6 162.569 42.5941 162.549 42.5906C162.529 42.5873 162.531 42.5861 162.55 42.593C162.569 42.6002 162.596 42.6122 162.623 42.6296C162.651 42.6469 162.67 42.663 162.68 42.6719L159.933 45.58L157.187 48.488C158.748 49.9626 160.697 50.6 162.693 50.6V46.6ZM159.933 45.58L162.841 42.8335C162.837 42.8291 162.846 42.8377 162.86 42.8597C162.874 42.8822 162.888 42.9095 162.9 42.9384C162.911 42.967 162.915 42.9868 162.916 42.9925C162.917 42.9975 162.913 42.9816 162.913 42.94H158.913H154.913C154.913 44.9448 155.606 46.8239 157.025 48.3265L159.933 45.58ZM158.913 42.94H162.913V14.68H158.913H154.913V42.94H158.913ZM158.913 14.68L158.014 18.5775L160.354 19.1175L161.253 15.22L162.153 11.3224L159.813 10.7824L158.913 14.68ZM161.253 15.22L157.909 13.0261L145.669 31.6861L149.013 33.88L152.358 36.0739L164.598 17.4139L161.253 15.22ZM149.013 33.88L145.918 31.347C145.906 31.361 145.841 31.4374 145.649 31.547L147.633 35.02L149.618 38.4929C150.546 37.9626 151.401 37.279 152.109 36.4129L149.013 33.88ZM147.633 35.02L145.537 31.6133C145.584 31.5843 145.685 31.5318 145.835 31.493C145.988 31.4533 146.148 31.4394 146.298 31.4501L146.013 35.44L145.728 39.4298C147.198 39.5347 148.562 39.145 149.73 38.4266L147.633 35.02ZM146.013 35.44L145.707 31.4518C145.917 31.4356 146.095 31.4599 146.222 31.493C146.344 31.5245 146.397 31.5579 146.378 31.547L144.393 35.02L142.409 38.493C143.498 39.1154 144.831 39.5428 146.32 39.4282L146.013 35.44ZM144.393 35.02L146.49 31.6133C146.321 31.5096 146.227 31.4175 146.169 31.347L143.073 33.88L139.978 36.4129C140.64 37.2225 141.426 37.8904 142.297 38.4266L144.393 35.02ZM143.073 33.88L146.454 31.7419L134.994 13.6219L131.613 15.76L128.233 17.8981L139.693 36.0181L143.073 33.88ZM131.613 15.76L135.205 17.5217L136.765 14.3417L133.173 12.58L129.582 10.8183L128.022 13.9983L131.613 15.76ZM133.173 12.58H129.173V42.94H133.173H137.173V12.58H133.173ZM133.173 42.94H129.173C129.173 42.9946 129.169 43.024 129.168 43.0324C129.167 43.0402 129.167 43.0321 129.174 43.013C129.181 42.9936 129.191 42.9721 129.203 42.952C129.215 42.9321 129.224 42.9222 129.224 42.9225L132.213 45.58L135.203 48.2374C136.548 46.7244 137.173 44.875 137.173 42.94H133.173ZM132.213 45.58L129.301 42.8385C129.327 42.8103 129.369 42.7721 129.426 42.7327C129.484 42.693 129.544 42.6609 129.603 42.6372C129.725 42.5878 129.774 42.6 129.693 42.6V46.6V50.6C131.698 50.6 133.64 49.9003 135.126 48.3214L132.213 45.58ZM129.693 46.6V42.6C129.653 42.6 129.727 42.5947 129.861 42.65C130 42.7079 130.099 42.7885 130.146 42.8385L127.233 45.58L124.321 48.3214C125.774 49.8661 127.678 50.6 129.693 50.6V46.6ZM127.233 45.58L130.223 42.9225C130.223 42.9222 130.231 42.9321 130.243 42.952C130.255 42.9721 130.266 42.9936 130.273 43.013C130.28 43.0321 130.28 43.0402 130.279 43.0324C130.278 43.024 130.273 42.9946 130.273 42.94H126.273H122.273C122.273 44.875 122.899 46.7244 124.244 48.2374L127.233 45.58ZM126.273 42.94H130.273V8.19997H126.273H122.273V42.94H126.273ZM126.273 8.19997H130.273C130.273 8.19098 130.274 8.20488 130.268 8.23631C130.262 8.26841 130.251 8.30782 130.233 8.34953C130.216 8.39113 130.197 8.42306 130.183 8.44346C130.17 8.46322 130.166 8.46422 130.182 8.4484L127.353 5.61997L124.525 2.79155C123.07 4.24635 122.273 6.1176 122.273 8.19997H126.273ZM127.353 5.61997L130.104 8.52378C130.129 8.50094 130.138 8.49591 130.131 8.50032C130.124 8.50508 130.107 8.51452 130.084 8.52388C130.061 8.53325 130.041 8.53822 130.029 8.54033C130.019 8.54234 130.025 8.53997 130.053 8.53997V4.53997V0.539974C127.982 0.539974 126.1 1.29749 124.602 2.71616L127.353 5.61997ZM221.574 34L217.84 32.5641V32.5641L221.574 34ZM217.314 40.9L214.37 38.1917L214.367 38.1944L217.314 40.9ZM210.834 45.52L209.209 41.8647L209.198 41.8696L209.187 41.8745L210.834 45.52ZM194.514 45.52L196.16 41.8745V41.8745L194.514 45.52ZM188.034 40.9L185.06 43.5758L185.089 43.6071L185.117 43.6377L188.034 40.9ZM183.834 34L187.567 32.5641V32.5641L183.834 34ZM183.834 17.2L187.567 18.6359V18.6359L183.834 17.2ZM188.034 10.36L185.09 7.65174L185.087 7.65435L188.034 10.36ZM194.514 5.67997L196.16 9.32545V9.32545L194.514 5.67997ZM210.834 5.67997L209.187 9.32545L209.198 9.33037L209.209 9.33522L210.834 5.67997ZM217.314 10.36L214.34 13.0358L214.369 13.0671L214.397 13.0977L217.314 10.36ZM221.574 17.2L217.84 18.6359V18.6359L221.574 17.2ZM213.654 18.34L210.063 20.1027L210.069 20.1158L210.076 20.1288L213.654 18.34ZM209.214 13.12L211.465 9.81358V9.81358L209.214 13.12ZM196.134 13.12L198.385 16.4264V16.4264L196.134 13.12ZM191.694 18.28L188.116 16.4911L188.103 16.5178L188.09 16.5447L191.694 18.28ZM191.694 32.92L188.077 34.6295L188.096 34.6694L188.116 34.7088L191.694 32.92ZM196.134 38.08L198.385 34.7736V34.7736L196.134 38.08ZM209.214 38.08L211.465 41.3864V41.3864L209.214 38.08ZM213.654 32.92L217.231 34.7088L217.238 34.6958L217.244 34.6827L213.654 32.92ZM223.074 25.6H219.074C219.074 28.147 218.651 30.4565 217.84 32.5641L221.574 34L225.307 35.4359C226.496 32.3435 227.074 29.0529 227.074 25.6H223.074ZM221.574 34L217.84 32.5641C217.016 34.706 215.86 36.5717 214.37 38.1917L217.314 40.9L220.257 43.6082C222.447 41.2282 224.131 38.4939 225.307 35.4359L221.574 34ZM217.314 40.9L214.367 38.1944C212.952 39.7359 211.247 40.9591 209.209 41.8647L210.834 45.52L212.458 49.1752C215.46 47.8408 218.075 45.9841 220.26 43.6056L217.314 40.9ZM210.834 45.52L209.187 41.8745C207.269 42.7409 205.116 43.2 202.674 43.2V47.2V51.2C206.151 51.2 209.438 50.539 212.48 49.1655L210.834 45.52ZM202.674 47.2V43.2C200.231 43.2 198.078 42.7409 196.16 41.8745L194.514 45.52L192.867 49.1655C195.909 50.539 199.196 51.2 202.674 51.2V47.2ZM194.514 45.52L196.16 41.8745C194.153 40.968 192.426 39.7344 190.95 38.1622L188.034 40.9L185.117 43.6377C187.321 45.9855 189.914 47.8319 192.867 49.1655L194.514 45.52ZM188.034 40.9L191.007 38.2241C189.545 36.6003 188.398 34.7241 187.567 32.5641L183.834 34L180.1 35.4359C181.269 38.4758 182.922 41.1996 185.06 43.5758L188.034 40.9ZM183.834 34L187.567 32.5641C186.756 30.4565 186.334 28.147 186.334 25.6H182.334H178.334C178.334 29.0529 178.911 32.3435 180.1 35.4359L183.834 34ZM182.334 25.6H186.334C186.334 23.0529 186.756 20.7435 187.567 18.6359L183.834 17.2L180.1 15.7641C178.911 18.8565 178.334 22.147 178.334 25.6H182.334ZM183.834 17.2L187.567 18.6359C188.395 16.4825 189.535 14.6384 190.98 13.0656L188.034 10.36L185.087 7.65435C182.932 10.0016 181.272 12.7174 180.1 15.7641L183.834 17.2ZM188.034 10.36L190.977 13.0682C192.452 11.4654 194.17 10.2239 196.16 9.32545L194.514 5.67997L192.867 2.03449C189.897 3.37602 187.295 5.25459 185.09 7.65175L188.034 10.36ZM194.514 5.67997L196.16 9.32545C198.078 8.45902 200.231 7.99997 202.674 7.99997V3.99997V-2.67029e-05C199.196 -2.67029e-05 195.909 0.660927 192.867 2.03449L194.514 5.67997ZM202.674 3.99997V7.99997C205.116 7.99997 207.269 8.45902 209.187 9.32545L210.834 5.67997L212.48 2.03449C209.438 0.660927 206.151 -2.67029e-05 202.674 -2.67029e-05V3.99997ZM210.834 5.67997L209.209 9.33522C211.229 10.2329 212.926 11.4639 214.34 13.0358L217.314 10.36L220.287 7.68412C218.102 5.25603 215.478 3.36704 212.458 2.02473L210.834 5.67997ZM217.314 10.36L214.397 13.0977C215.871 14.667 217.019 16.5008 217.84 18.6359L221.574 17.2L225.307 15.7641C224.128 12.6992 222.437 9.97294 220.23 7.62223L217.314 10.36ZM221.574 17.2L217.84 18.6359C218.651 20.7435 219.074 23.0529 219.074 25.6H223.074H227.074C227.074 22.147 226.496 18.8565 225.307 15.7641L221.574 17.2ZM215.274 25.6H219.274C219.274 22.368 218.618 19.3252 217.231 16.5511L213.654 18.34L210.076 20.1288C210.849 21.6748 211.274 23.4719 211.274 25.6H215.274ZM213.654 18.34L217.244 16.5773C215.883 13.8052 213.962 11.5135 211.465 9.81358L209.214 13.12L206.962 16.4264C208.226 17.2864 209.264 18.4748 210.063 20.1027L213.654 18.34ZM209.214 13.12L211.465 9.81358C208.861 8.04071 205.881 7.19997 202.674 7.19997V11.2V15.2C204.427 15.2 205.806 15.6392 206.962 16.4264L209.214 13.12ZM202.674 11.2V7.19997C199.467 7.19997 196.486 8.04071 193.882 9.81358L196.134 13.12L198.385 16.4264C199.541 15.6392 200.921 15.2 202.674 15.2V11.2ZM196.134 13.12L193.882 9.81358C191.403 11.5017 189.482 13.7594 188.116 16.4911L191.694 18.28L195.271 20.0688C196.065 18.4806 197.104 17.2982 198.385 16.4264L196.134 13.12ZM191.694 18.28L188.09 16.5447C186.756 19.3147 186.134 22.3603 186.134 25.6H190.134H194.134C194.134 23.3996 194.551 21.5652 195.298 20.0152L191.694 18.28ZM190.134 25.6H186.134C186.134 28.8106 186.76 31.8428 188.077 34.6295L191.694 32.92L195.31 31.2105C194.547 29.5971 194.134 27.7494 194.134 25.6H190.134ZM191.694 32.92L188.116 34.7088C189.482 37.4406 191.403 39.6982 193.882 41.3864L196.134 38.08L198.385 34.7736C197.104 33.9017 196.065 32.7194 195.271 31.1311L191.694 32.92ZM196.134 38.08L193.882 41.3864C196.486 43.1592 199.467 44 202.674 44V40V36C200.921 36 199.541 35.5607 198.385 34.7736L196.134 38.08ZM202.674 40V44C205.881 44 208.861 43.1592 211.465 41.3864L209.214 38.08L206.962 34.7736C205.806 35.5607 204.427 36 202.674 36V40ZM209.214 38.08L211.465 41.3864C213.944 39.6982 215.865 37.4406 217.231 34.7088L213.654 32.92L210.076 31.1311C209.282 32.7194 208.243 33.9017 206.962 34.7736L209.214 38.08ZM213.654 32.92L217.244 34.6827C218.618 31.8842 219.274 28.833 219.274 25.6H215.274H211.274C211.274 27.7269 210.849 29.5557 210.063 31.1573L213.654 32.92Z" fill="#8B5CF6" mask="url(#path-1-outside-1_248_183)"/>
</svg>
